<?xml version="1.0" encoding="utf-8"?>
<!-- Generator: Adobe Illustrator 23.0.2, SVG Export Plug-In . SVG Version: 6.00 Build 0)  -->
<svg version="1.1" id="Layer_1" xmlns="http://www.w3.org/2000/svg" xmlns:xlink="http://www.w3.org/1999/xlink" x="0px" y="0px"
	 viewBox="0 0 320 320" style="enable-background:new 0 0 320 320;" xml:space="preserve">
<style type="text/css">
	.st0{fill:#0984E3;}
</style>
<g id="halo">
	<path class="st0" d="M159,310.5C76,310.5,8.5,243,8.5,160C8.5,77,76,9.5,159,9.5C242,9.5,309.5,77,309.5,160
		C309.5,243,242,310.5,159,310.5z M151.8,15.7c-37.2,0-72.2,14.5-98.4,40.7c-26.3,26.3-40.8,61.2-40.8,98.4
		C12.6,231.6,75,294,151.8,294S291,231.6,291,154.9C291,78.1,228.6,15.7,151.8,15.7z"/>
	<path class="st0" d="M159,10c82.8,0,150,67.2,150,150s-67.2,150-150,150S9,242.8,9,160S76.2,10,159,10 M151.8,294.5
		c77.1,0,139.7-62.4,139.7-139.6S229,15.2,151.8,15.2S12.1,77.6,12.1,154.8S74.7,294.5,151.8,294.5 M159,9C75.7,9,8,76.7,8,160
		s67.7,151,151,151s151-67.7,151-151S242.3,9,159,9L159,9z M151.8,293.5c-37,0-71.9-14.4-98.1-40.6c-26.2-26.2-40.6-61-40.6-98.1
		c0-37.1,14.4-71.9,40.6-98c26.2-26.2,61-40.6,98.1-40.6c37.1,0,71.9,14.4,98.1,40.6c26.2,26.2,40.6,61,40.6,98.1
		c0,37.1-14.4,71.9-40.6,98C223.7,279.1,188.8,293.5,151.8,293.5L151.8,293.5z"/>
</g>
</svg>
